#!OML:ASF E:\Style4\Style4.ASF
:FULLY-SPECIFIED
:DEGREES
1390
root -0.179861 16.9977 -2.84967 3.78111 2.91686 3.2057
lowerback 20.2111 3.84239 5.2066
upperback 10.9256 5.83326 -5.07969
thorax 1.79318 3.43669 -9.49207
lowerneck 10.4554 -10.0742 3.58201
upperneck 5.85341 -12.9969 9.38743
head 0.567924 -6.41986 2.70829
rclavicle 1.99779e-014 -3.83903e-014
rhumerus 25.5891 61.443 -60.6178
rradius 117.977
rwrist -73.4032
rhand 11.8414 -2.15204
rfingers 7.12502
rthumb 36.8706 -28.2498
lclavicle 1.99779e-014 -3.83903e-014
lhumerus 74.288 3.69682 55.8492
lradius 136.327
lwrist 57.1258
lhand -5.62682 26.5561
lfingers 7.12502
lthumb 20.1911 55.5267
rfemur -32.7504 -3.60136 17.4194
rtibia 52.0384
rfoot -21.8806 -12.7615
rtoes -7.79086
lfemur -31.4322 1.11008 -21.953
ltibia 48.3489
lfoot -19.6548 4.83812
ltoes -15.5429
1391
root -0.182474 17.015 -2.84798 3.86294 2.90662 3.20642
lowerback 20.0329 3.87403 4.95418
upperback 10.9644 5.82942 -4.93227
thorax 1.87246 3.41776 -9.16085
lowerneck 10.3074 -10.1185 3.49203
upperneck 5.89507 -13.0763 9.15871
head 0.597678 -6.45435 2.6389
rclavicle 1.46355e-014 1.19768e-014
rhumerus 24.7128 61.7145 -61.7231
rradius 117.688
rwrist -73.0716
rhand 12.3904 -1.98184
rfingers 7.12502
rthumb 37.3899 -27.9445
lclavicle 1.46355e-014 1.19768e-014
lhumerus 73.9063 3.59487 55.6874
lradius 136.04
lwrist 56.9835
lhand -6.02124 26.5362
lfingers 7.12502
lthumb 19.8119 55.5465
rfemur -32.6499 -3.55828 17.4315
rtibia 51.7807
rfoot -21.8503 -12.7152
rtoes -7.51872
lfemur -31.3435 1.01316 -21.936
ltibia 48.0535
lfoot -19.5093 4.89473
ltoes -15.063
1392
root -0.184706 17.0351 -2.8443 3.91948 2.93021 3.22744
lowerback 19.7416 3.91685 4.49021
upperback 11.0746 5.80656 -4.65093
thorax 2.04013 3.37656 -8.54339
lowerneck 10.0898 -10.1014 3.15994
upperneck 6.00547 -13.1141 9.01486
head 0.680744 -6.46872 2.62843
rclavicle 6.44062e-014 -4.90998e-014
rhumerus 24.1104 62.0967 -62.4167
rradius 117.406
rwrist -72.874
rhand 12.8694 -1.83846
rfingers 7.12502
rthumb 37.8426 -27.6804
lclavicle 6.44062e-014 -4.90998e-014
lhumerus 73.6525 3.84981 55.5983
lradius 135.541
lwrist 56.8559
lhand -6.37318 26.3424
lfingers 7.12502
lthumb 19.4736 55.3872
rfemur -32.4832 -3.56752 17.4119
rtibia 51.4815
rfoot -21.8311 -12.6186
rtoes -7.05449
lfemur -31.1797 0.890034 -21.9487
ltibia 47.7058
lfoot -19.3953 5.03131
ltoes -15.3816
1393
root -0.186793 17.057 -2.84127 3.94345 2.94248 3.2218
lowerback 19.5169 3.94934 4.02817
upperback 11.1782 5.7734 -4.32793
thorax 2.16185 3.32519 -7.8911
lowerneck 9.87476 -10.0612 2.72324
upperneck 6.06506 -13.1244 8.81751
head 0.748534 -6.47442 2.61886
rclavicle -7.05686e-014 4.75095e-014
rhumerus 23.3956 62.525 -63.2093
rradius 117.125
rwrist -72.7666
rhand 13.3423 -1.80945
rfingers 7.12502
rthumb 38.2891 -27.5294
lclavicle -7.05686e-014 4.75095e-014
lhumerus 73.3574 4.22201 55.4533
lradius 135.087
lwrist 56.625
lhand -6.95366 26.0678
lfingers 7.12502
lthumb 18.9154 55.1681
rfemur -32.2826 -3.5516 17.4175
rtibia 51.1235
rfoot -21.6966 -12.6153
rtoes -7.0348
lfemur -30.9681 0.837058 -21.9388
ltibia 47.3157
lfoot -19.3416 5.02106
ltoes -14.6766
1394
root -0.190552 17.0801 -2.84163 4.01344 2.9644 3.15945
lowerback 19.3111 3.968 3.73785
upperback 11.2479 5.75071 -4.07982
thorax 2.27083 3.29032 -7.42778
lowerneck 9.62605 -10.0477 2.49293
upperneck 6.23631 -13.1527 8.51135
head 0.837576 -6.47909 2.53619
rclavicle -2.99171e-014 3.10104e-014
rhumerus 22.5205 62.7583 -64.2804
rradius 116.854
rwrist -72.6283
rhand 13.8112 -1.98847
rfingers 7.12502
rthumb 38.7315 -27.5849
lclavicle -2.99171e-014 3.10104e-014
lhumerus 73.1634 4.5227 55.3116
lradius 134.746
lwrist 56.4131
lhand -7.52167 26.0281
lfingers 7.12502
lthumb 18.369 55.1808
rfemur -32.1062 -3.50829 17.501
rtibia 50.6892
rfoot -21.5413 -12.6915
rtoes -7.384
lfemur -30.8173 0.793517 -21.8556
ltibia 46.9069
lfoot -19.3529 4.89026
ltoes -12.9012
1395
root -0.195936 17.1041 -2.84238 4.13462 3.02547 3.12614
lowerback 19.0625 3.98275 3.43178
upperback 11.3136 5.72144 -3.85589
thorax 2.39863 3.25256 -6.97957
lowerneck 9.56732 -10.0226 2.2579
upperneck 6.35075 -13.1487 8.32338
head 0.885054 -6.47508 2.50587
rclavicle 4.17448e-015 -3.49861e-014
rhumerus 22.0209 63.0252 -64.897
rradius 116.649
rwrist -72.4608
rhand 14.3962 -2.1423
rfingers 7.12502
rthumb 39.283 -27.5807
lclavicle 4.17448e-015 -3.49861e-014
lhumerus 73.1402 4.77419 55.2322
lradius 134.332
lwrist 56.2546
lhand -7.89331 26.0899
lfingers 7.12502
lthumb 18.0115 55.2759
rfemur -32.005 -3.47743 17.5522
rtibia 50.2138
rfoot -21.274 -12.8223
rtoes -7.66839
lfemur -30.705 0.692118 -21.7953
ltibia 46.4705
lfoot -19.2286 4.86028
ltoes -12.2603
1396
root -0.201472 17.1301 -2.84401 4.26305 3.07858 3.04315
lowerback 18.9117 3.98904 3.21769
upperback 11.3484 5.69595 -3.65069
thorax 2.45772 3.21957 -6.61676
lowerneck 9.59737 -10.011 2.01986
upperneck 6.31966 -13.148 8.19479
head 0.875716 -6.48117 2.50514
rclavicle -8.74653e-015 1.68967e-014
rhumerus 21.6156 63.4505 -65.3768
rradius 116.472
rwrist -72.0423
rhand 14.9467 -2.17887
rfingers 7.12502
rthumb 39.8015 -27.4645
lclavicle -8.74653e-015 1.68967e-014
lhumerus 73.3634 4.92714 55.0397
lradius 133.65
lwrist 55.9415
lhand -8.17276 25.8843
lfingers 7.12502
lthumb 17.7426 55.0948
rfemur -31.9109 -3.44358 17.664
rtibia 49.715
rfoot -20.9593 -12.9778
rtoes -7.99514
lfemur -30.6207 0.653059 -21.6822
ltibia 46.0227
lfoot -18.9992 4.91899
ltoes -12.4669
1397
root -0.207372 17.1563 -2.84589 4.35274 3.08708 3.01898
lowerback 18.8675 4.00458 3.0401
upperback 11.3802 5.68881 -3.53506
thorax 2.4788 3.20135 -6.38492
lowerneck 9.35479 -9.99885 1.89733
upperneck 6.47115 -13.1645 8.01178
head 0.959122 -6.48057 2.44666
rclavicle -8.60738e-014 5.76476e-014
rhumerus 21.1391 63.8632 -66.0051
rradius 116.28
rwrist -71.4533
rhand 14.7939 -1.40893
rfingers 7.12502
rthumb 39.6576 -26.7374
lclavicle -8.60738e-014 5.76476e-014
lhumerus 73.855 4.98467 54.7523
lradius 132.791
lwrist 55.6077
lhand -8.23176 25.5529
lfingers 7.12502
lthumb 17.6858 54.7685
rfemur -31.725 -3.41899 17.7236
rtibia 49.2404
rfoot -20.783 -13.0087
rtoes -7.79895
lfemur -30.473 0.640336 -21.6297
ltibia 45.5465
lfoot -18.7285 4.99523
ltoes -12.9373
1398
root -0.210658 17.1843 -2.84743 4.47875 3.10119 2.8989
lowerback 18.8452 3.99119 3.11977
upperback 11.3414 5.68202 -3.49942
thorax 2.45067 3.19845 -6.39029
lowerneck 9.05665 -9.98179 1.82521
upperneck 6.75608 -13.1831 7.8909
head 1.09638 -6.47402 2.39337
rclavicle -2.92213e-014 4.51241e-014
rhumerus 20.4501 64.1734 -66.9428
rradius 116.096
rwrist -70.958
rhand 14.1036 -0.147716
rfingers 7.12502
rthumb 39.0072 -25.6657
lclavicle -2.92213e-014 4.51241e-014
lhumerus 74.2571 4.96326 54.3689
lradius 132.066
lwrist 55.4224
lhand -8.20257 25.2154
lfingers 7.12502
lthumb 17.7139 54.4286
rfemur -31.5619 -3.42673 17.8811
rtibia 48.7533
rfoot -20.6113 -12.9647
rtoes -7.53799
lfemur -30.3522 0.539739 -21.4766
ltibia 45.0541
lfoot -18.5138 5.14154
ltoes -13.2088
1399
root -0.213452 17.2149 -2.84948 4.65864 3.10144 2.80435
lowerback 18.7921 3.96482 3.1911
upperback 11.284 5.65633 -3.47502
thorax 2.41538 3.18514 -6.39859
lowerneck 8.94332 -9.92947 1.65769
upperneck 6.86364 -13.1424 7.85122
head 1.15607 -6.45129 2.39735
rclavicle 9.14409e-015 -4.13472e-014
rhumerus 19.8982 64.5178 -67.7521
rradius 115.914
rwrist -70.6246
rhand 14.0991 0.321952
rfingers 7.12502
rthumb 39.003 -25.1972
lclavicle 9.14409e-015 -4.13472e-014
lhumerus 74.5869 5.05757 54.0585
lradius 131.441
lwrist 55.2562
lhand -8.04063 25.0426
lfingers 7.12502
lthumb 17.8697 54.2416
rfemur -31.4895 -3.40599 17.9989
rtibia 48.2586
rfoot -20.4134 -12.9536
rtoes -7.35817
lfemur -30.2837 0.428653 -21.35
ltibia 44.5464
lfoot -18.3048 5.21556
ltoes -12.9743
1400
root -0.217761 17.2433 -2.85244 4.84468 3.11884 2.82248
lowerback 18.7858 3.94049 3.14185
upperback 11.1918 5.61482 -3.46873
thorax 2.3042 3.15503 -6.36212
lowerneck 8.93285 -9.88812 1.45236
upperneck 6.98493 -13.111 7.76046
head 1.20245 -6.43563 2.39686
rclavicle -1.64991e-014 8.34896e-015
rhumerus 19.2133 64.9298 -68.6302
rradius 115.755
rwrist -70.3302
rhand 14.8621 0.0609218
rfingers 7.12502
rthumb 39.7218 -25.2484
lclavicle -1.64991e-014 8.34896e-015
lhumerus 75.0039 5.23335 53.8313
lradius 130.722
lwrist 55.1644
lhand -7.68581 25.0993
lfingers 7.12502
lthumb 18.2111 54.2668
rfemur -31.405 -3.36239 17.9905
rtibia 47.7493
rfoot -20.2314 -12.9491
rtoes -6.87359
lfemur -30.2136 0.384091 -21.3567
ltibia 44.0366
lfoot -18.0685 5.24493
ltoes -12.7297
1401
root -0.223462 17.268 -2.85564 5.00946 3.13201 2.81675
lowerback 18.7751 3.92967 3.10485
upperback 11.1244 5.59325 -3.46442
thorax 2.22722 3.13753 -6.33588
lowerneck 8.89038 -9.88953 1.263
upperneck 7.15379 -13.1377 7.64773
head 1.2694 -6.44627 2.38406
rclavicle 2.26615e-014 -1.47101e-014
rhumerus 18.6031 65.3423 -69.4291
rradius 115.622
rwrist -70.1528
rhand 15.254 -0.0187056
rfingers 7.12502
rthumb 40.0907 -25.2173
lclavicle 2.26615e-014 -1.47101e-014
lhumerus 75.5256 5.48613 53.6171
lradius 130.068
lwrist 55.2748
lhand -7.30387 25.2406
lfingers 7.12502
lthumb 18.5785 54.3734
rfemur -31.3003 -3.26795 18.0044
rtibia 47.2216
rfoot -20.0555 -12.9466
rtoes -6.51736
lfemur -30.122 0.29946 -21.3247
ltibia 43.54
lfoot -17.8211 5.34161
ltoes -12.5528
